<svg width="24" height="24" viewBox="0 0 24 25" fill="none" xmlns="http://www.w3.org/2000/svg">
<g opacity="0.7">
<rect y="0.09375" width="24" height="24" rx="2" fill="url(#paint0_linear_0_176)"/>
<g clip-path="url(#clip0_0_176)">
<path d="M17.7931 9.25878C17.6635 8.61423 17.3406 8.02449 16.8673 7.56812C16.3941 7.11175 15.793 6.81042 15.1441 6.70428C14.6567 6.62657 14.1578 6.66263 13.6866 6.80965C13.2153 6.95667 12.7845 7.21066 12.4276 7.55178C12.3115 7.65979 12.1588 7.71984 12.0001 7.71984C11.8415 7.71984 11.6888 7.65979 11.5726 7.55178C10.9802 6.97876 10.1898 6.65608 9.36556 6.65082C8.54137 6.64556 7.74685 6.95812 7.14716 7.52353C6.54747 8.08894 6.18873 8.86371 6.14552 9.68679C6.10231 10.5099 6.37795 11.3179 6.91515 11.943L11.3521 17.2305C11.4316 17.325 11.5307 17.401 11.6426 17.4531C11.7544 17.5052 11.8764 17.5322 11.9998 17.5322C12.1232 17.5322 12.2451 17.5052 12.357 17.4531C12.4689 17.401 12.568 17.325 12.6474 17.2305L17.0844 11.943C17.3982 11.5788 17.625 11.1481 17.7478 10.6833C17.8706 10.2185 17.8861 9.73192 17.7931 9.26028V9.25878Z" fill="white"/>
</g>
</g>
<defs>
<linearGradient id="paint0_linear_0_176" x1="0" y1="0.09375" x2="24" y2="24.0938" gradientUnits="userSpaceOnUse">
<stop stop-color="#450AF5"/>
<stop offset="1" stop-color="#C4EFD9"/>
</linearGradient>
<clipPath id="clip0_0_176">
<rect width="12" height="12" fill="white" transform="translate(6 6.09375)"/>
</clipPath>
</defs>
</svg>
