<svg width="24" height="24" viewBox="0 0 24 25" fill="none" xmlns="http://www.w3.org/2000/svg">
<rect y="0.09375" width="24" height="24" rx="2" fill="white"/>
<g clip-path="url(#clip0_0_169)">
<path d="M17.4375 12.0938C17.4375 12.2429 17.3782 12.386 17.2727 12.4915C17.1673 12.597 17.0242 12.6562 16.875 12.6562H12.5625V16.9688C12.5625 17.1179 12.5032 17.261 12.3977 17.3665C12.2923 17.472 12.1492 17.5312 12 17.5312C11.8508 17.5312 11.7077 17.472 11.6023 17.3665C11.4968 17.261 11.4375 17.1179 11.4375 16.9688V12.6562H7.125C6.97582 12.6562 6.83274 12.597 6.72725 12.4915C6.62176 12.386 6.5625 12.2429 6.5625 12.0938C6.5625 11.9446 6.62176 11.8015 6.72725 11.696C6.83274 11.5905 6.97582 11.5312 7.125 11.5312H11.4375V7.21875C11.4375 7.06957 11.4968 6.92649 11.6023 6.821C11.7077 6.71551 11.8508 6.65625 12 6.65625C12.1492 6.65625 12.2923 6.71551 12.3977 6.821C12.5032 6.92649 12.5625 7.06957 12.5625 7.21875V11.5312H16.875C17.0242 11.5312 17.1673 11.5905 17.2727 11.696C17.3782 11.8015 17.4375 11.9446 17.4375 12.0938Z" fill="black"/>
</g>
<defs>
<clipPath id="clip0_0_169">
<rect width="12" height="12" fill="white" transform="translate(6 6.09375)"/>
</clipPath>
</defs>
</svg>
